<svg id="Layer_1" data-name="Layer 1" xmlns="http://www.w3.org/2000/svg" viewBox="0 0 500 300"><defs><style>.cls-1{fill:#00d614;}</style></defs><title>RockitLogo-15</title><path d="M138.07,190.18q2,4.68,2,6.75,0,4.94-8.05,8.31a17.71,17.71,0,0,1-6.69,1.82,6.69,6.69,0,0,1-4.15-1.23,9.37,9.37,0,0,1-2.4-2.53q-1.31-2.48-10.13-23.51l-4,.26H88.21v14.68a38,38,0,0,1-.19,4.48,10.32,10.32,0,0,1-1.24,3.44q-1.82,3.49-10.12,3.5-9.09,0-10.65-4.8a21.66,21.66,0,0,1-.78-6.75V122.53a38,38,0,0,1,.19-4.48,10.32,10.32,0,0,1,1.24-3.44q1.82-3.51,10.13-3.51h28q11.43,0,22.21,8.31a30.54,30.54,0,0,1,8.57,10.91A34.34,34.34,0,0,1,139,145.64q0,14.69-9.73,24.15Q132.1,176.68,138.07,190.18ZM88.21,157.07h16.62a12.4,12.4,0,0,0,7.53-2.86q3.77-2.85,3.77-8.57T112.36,137a12.54,12.54,0,0,0-7.79-2.92H88.21Z"/><path d="M149.53,146.42q10.91-10.12,24.93-10.13t24.8,10.07Q210,156.42,210,172a33.78,33.78,0,0,1-5.59,19.16,35,35,0,0,1-13.56,12.33,36.88,36.88,0,0,1-16.56,4,35.4,35.4,0,0,1-16.62-4.22,36.86,36.86,0,0,1-13.57-12.46,32.75,32.75,0,0,1-5.52-18.64Q138.62,156.55,149.53,146.42Zm16.23,35a13.75,13.75,0,0,0,8.44,3.19,14.13,14.13,0,0,0,8.57-3.25q4.29-3.24,4.28-9.61t-4-9.48a14,14,0,0,0-8.7-3.11,13.59,13.59,0,0,0-8.7,3.24q-4,3.26-4,9.55T165.76,181.41Z"/><path d="M235.9,171.07a10.56,10.56,0,0,0,3.64,8.57,11.85,11.85,0,0,0,7.72,3.05,13.47,13.47,0,0,0,7.66-2.4c2.38-1.6,4.31-2.41,5.78-2.41q3.9,0,9.48,6.89,3,3.76,3,6.75,0,4.93-7.14,9.22-7.41,5.19-18.18,5.19-12.07,0-23.25-8.7a30.92,30.92,0,0,1-8.7-11.1,34.59,34.59,0,0,1-3.37-15.32,33.72,33.72,0,0,1,3.37-15.19,31.25,31.25,0,0,1,8.7-11q10.78-8.56,23-8.57a34.13,34.13,0,0,1,9.61,1.37,31.51,31.51,0,0,1,6.88,2.66l2.07,1.3c1.56,1,2.77,1.86,3.64,2.46,2.25,1.74,3.38,3.7,3.38,5.91s-.91,4.7-2.73,7.47q-4.68,7.14-9,7.14-2.46,0-7-2.86-2.34-2.21-6.69-2.2a12.46,12.46,0,0,0-8.11,3.11A10.58,10.58,0,0,0,235.9,171.07Z"/><path d="M317.86,171l17.27,14.28a20.4,20.4,0,0,1,4.09,4.16,5.39,5.39,0,0,1,.84,2.73q0,3.11-4,8.44-4.41,5.44-7.79,5.45-2.87,0-7.92-3.76l-1.3-.91q-3-2.47-9.22-8.64T300.33,184v10a37.75,37.75,0,0,1-.19,4.48,10.29,10.29,0,0,1-1.24,3.45q-1.68,3.38-10,3.37t-10-3.5a12,12,0,0,1-1.11-3.45,37.75,37.75,0,0,1-.19-4.48V116.08a37.87,37.87,0,0,1,.19-4.48,11.82,11.82,0,0,1,1.11-3.44q1.81-3.51,10.12-3.51,6.24,0,8.83,2.21,2.2,1.81,2.34,5.71a35.41,35.41,0,0,1,.13,3.64v41.16q2.34-2,7.08-6.62t7.07-6.63l1.56-1q4.54-3.5,7.79-3.5t7.47,5.26q4.21,5.25,4.22,8.24t-4.8,7Z"/><path d="M359,111.19c-1.56-6.38-8.36-.56-9.82.79a66.93,66.93,0,0,0-4.77-17.09C338.57,81.83,333.81,78.58,331,79.14c-2.22.43-5.22,3.58-2.08,18A84.67,84.67,0,0,0,336,116.26c-1.66,0-11.42.14-8.6,6.57,3,6.85,10.87,12.52,11.29,11.42s-.9-4.14-2.57-8c-1.43-3.25.58-4.69,3.46-3.77,3,4.6,5.83,7.5,7.65,6.95s2.79-4.68,2.66-10.2c1.66-2.67,4.21-2.89,5,.56,1,3.88,1.72,7,2.69,7.58S360.75,118.18,359,111.19Z"/><path d="M413.58,161.12l-8.44-.52v17.92q0,3.49,1.11,5.06c.73,1,2.12,1.56,4.15,1.56a42.46,42.46,0,0,1,4.68.19,9.35,9.35,0,0,1,3.44,1.24q3,1.68,3,8.7,0,8.17-3.63,10a12,12,0,0,1-3.44,1.11,36.51,36.51,0,0,1-4.35.19q-13.51,0-20.52-6.1t-7-20.65V160.6a34.19,34.19,0,0,1-5.32.39,6,6,0,0,1-4.74-2.21q-1.89-2.21-1.89-7.53a32.86,32.86,0,0,1,.65-7.73,7,7,0,0,1,1.82-3.44,8,8,0,0,1,5.19-1.69l4.29.52V125.54a36.38,36.38,0,0,1,.19-4.42A8,8,0,0,1,384,118q1.68-3.26,10-3.25,8.82,0,10.51,4.81a24.34,24.34,0,0,1,.65,6.62v12.72c3.81-.34,6.69-.52,8.64-.52a36.52,36.52,0,0,1,4.41.2,10.34,10.34,0,0,1,3.44,1.23q3.38,1.69,3.38,10t-3.51,10a12.08,12.08,0,0,1-3.44,1.1A37.4,37.4,0,0,1,413.58,161.12Z"/><rect class="cls-1" x="63.37" y="210.11" width="363" height="8.6" rx="4.3" ry="4.3"/><path d="M345.57,200.64a10,10,0,0,0-6.24,5.79H387a12.55,12.55,0,0,0-6.37-8.66,2,2,0,0,1-.12.19,9.81,9.81,0,0,1-1.6,1.74A11.22,11.22,0,0,1,377,201c.37-.71.84-1.27,1.2-1.92a17.29,17.29,0,0,0,1-1.9,12.07,12.07,0,0,0,.63-1.6c0-.27,0-.53,0-.8a14.4,14.4,0,0,0-7.11-12.42,10.05,10.05,0,0,0-8.39-15.15,8.86,8.86,0,0,0-4.12-15,7.33,7.33,0,0,1-.19.81,8,8,0,0,1-2.55,3.91,18.14,18.14,0,0,0,1-4.21c0-.25,0-.49,0-.74h-.06a7,7,0,0,0-1.21-2.71,4.18,4.18,0,0,0-1.66-7.45,4.78,4.78,0,0,0-2.53-3.35,3.27,3.27,0,1,0-4.8.23,4.79,4.79,0,0,0,.27,8.22,7.18,7.18,0,0,0,.79,13.43c0,.16,0,.32,0,.48a8.81,8.81,0,0,0,1.78,5.31,9.59,9.59,0,0,0-1.75,13.77h0a19.73,19.73,0,0,0,2.27,1.74c.8.56,1.7,1,2.55,1.54a17.28,17.28,0,0,1-3-.66l-1.08-.45a7.25,7.25,0,0,0,.94,11.73,1.62,1.62,0,0,0,0,.22A10.76,10.76,0,0,0,345.57,200.64Z"/></svg>